<svg xmlns="http://www.w3.org/2000/svg" viewBox="0 0 180 180">
  <rect width="180" height="180" rx="40" fill="#FFFFFF"/>
  <rect width="180" height="180" rx="40" fill="none" stroke="#2563EB" stroke-width="4" opacity="0.15"/>
  <rect x="52" y="38" width="16" height="104" rx="4" fill="#2563EB"/>
  <polygon points="68,90 122,38 142,38 88,90" fill="#2563EB"/>
  <polygon points="68,90 88,90 142,142 122,142" fill="#2563EB"/>
  <rect x="44" y="148" width="92" height="3" rx="1.5" fill="#2563EB" opacity="0.25"/>
</svg>

<svg xmlns="http://www.w3.org/2000/svg" viewBox="0 0 180 180">
  <!-- 흰 배경 -->
  <rect width="180" height="180" rx="40" fill="#FFFFFF"/>
  <!-- 연한 블루 테두리 -->
  <rect width="180" height="180" rx="40" fill="none" stroke="#2563EB" stroke-width="4" opacity="0.15"/>
  <!-- K 글자 (획으로 직접 그리기) -->
  <!-- 세로 막대 -->
  <rect x="52" y="38" width="16" height="104" rx="4" fill="#2563EB"/>
  <!-- 위 대각선 -->
  <polygon points="68,90 122,38 142,38 88,90" fill="#2563EB"/>
  <!-- 아래 대각선 -->
  <polygon points="68,90 88,90 142,142 122,142" fill="#2563EB"/>
  <!-- 하단 텍스트 점선 영역 -->
  <rect x="44" y="148" width="92" height="3" rx="1.5" fill="#2563EB" opacity="0.25"/>
</svg>
